<svg xmlns="http://www.w3.org/2000/svg" xmlns:xlink="http://www.w3.org/1999/xlink" width="500" zoomAndPan="magnify" viewBox="0 0 375 374.999991" height="500" preserveAspectRatio="xMidYMid meet" version="1.2"><defs/><g id="6718e41c0c"><rect x="0" width="375" y="0" height="374.999991" style="fill:#ffffff;fill-opacity:1;stroke:none;"/><rect x="0" width="375" y="0" height="374.999991" style="fill:#9c272e;fill-opacity:1;stroke:none;"/><g style="fill:#ffffff;fill-opacity:1;"><g transform="translate(39.271705, 239.066176)"><path style="stroke:none" d="M 1.75 -99.269531 C 1.75 -98.570312 2.449219 -97.34375 3.5 -97.34375 C 5.777344 -97.34375 5.953125 -99.621094 6.828125 -102.421875 C 7.351562 -104.171875 8.230469 -106.796875 9.277344 -108.898438 C 10.679688 -111.699219 12.605469 -113.625 20.132812 -113.625 L 49.023438 -113.625 C 50.773438 -113.625 51.125 -112.226562 51.125 -107.675781 L 51.125 -14.53125 C 51.125 -4.027344 37.292969 -5.777344 37.292969 -1.574219 C 37.292969 0.175781 37.816406 0.699219 39.394531 0.699219 C 40.96875 0.699219 43.769531 0 62.328125 0 C 68.632812 0 73.535156 0.699219 77.386719 0.699219 C 78.609375 0.699219 79.136719 0.175781 79.136719 -1.226562 C 79.136719 -4.726562 74.410156 -3.851562 69.855469 -5.953125 C 66.878906 -7.351562 64.953125 -10.328125 64.953125 -15.40625 L 64.953125 -108.550781 C 64.953125 -113.277344 64.953125 -113.625 69.507812 -113.625 L 97.519531 -113.625 C 102.070312 -113.625 104.699219 -112.578125 106.273438 -111.351562 C 110.824219 -107.847656 107.148438 -100.320312 111.875 -100.320312 C 113.453125 -100.320312 113.800781 -101.019531 113.800781 -102.945312 C 113.800781 -105.921875 113.277344 -113.101562 112.925781 -118.355469 C 112.75 -122.207031 111.875 -123.257812 107.847656 -123.257812 C 104.347656 -123.257812 85.089844 -122.554688 57.25 -122.554688 C 45.695312 -122.554688 9.804688 -123.257812 7.703125 -123.257812 C 4.550781 -123.257812 4.203125 -122.207031 3.675781 -116.953125 Z M 1.75 -99.269531 "/></g></g><g style="fill:#ffffff;fill-opacity:1;"><g transform="translate(149.04536, 239.066176)"><path style="stroke:none" d="M 4.550781 -121.332031 C 4.550781 -117.480469 19.785156 -120.804688 19.785156 -108.199219 L 19.785156 -18.207031 C 19.785156 -1.402344 6.128906 -7.003906 6.128906 -1.925781 C 6.128906 -0.175781 6.652344 0.699219 8.054688 0.699219 C 9.105469 0.699219 10.503906 0 22.933594 0 C 32.738281 0 44.820312 0.699219 47.445312 0.699219 C 48.496094 0.699219 50.246094 0.351562 50.246094 -0.699219 C 50.246094 -6.128906 33.617188 -2.449219 33.617188 -14.007812 L 33.617188 -58.476562 C 33.617188 -60.050781 34.140625 -60.753906 35.542969 -60.753906 L 100.496094 -60.753906 C 101.546875 -60.753906 101.898438 -60.226562 101.898438 -59.175781 L 101.722656 -56.726562 L 101.722656 -14.179688 C 101.722656 -3.5 89.464844 -5.777344 89.464844 -1.574219 C 89.464844 0.175781 90.515625 0.699219 92.265625 0.699219 C 97.519531 0.699219 101.546875 0 112.75 0 C 119.578125 0 125.007812 0.699219 129.382812 0.699219 C 130.960938 0.699219 131.484375 -1.050781 131.484375 -1.402344 C 131.484375 -5.777344 115.554688 -2.800781 115.554688 -15.230469 L 115.554688 -108.375 C 115.554688 -120.105469 127.28125 -117.304688 127.28125 -120.453125 C 127.28125 -122.382812 125.53125 -123.257812 122.382812 -123.257812 C 118.878906 -123.257812 116.078125 -122.554688 109.949219 -122.554688 C 106.273438 -122.554688 97.167969 -123.257812 91.742188 -123.257812 C 89.640625 -123.257812 88.589844 -122.90625 88.589844 -121.332031 C 88.589844 -117.304688 101.722656 -120.28125 101.722656 -108.375 L 101.722656 -71.082031 C 101.722656 -67.582031 100.847656 -67.230469 100.496094 -67.230469 L 35.890625 -67.230469 C 33.789062 -67.230469 33.617188 -68.105469 33.617188 -69.507812 L 33.617188 -108.550781 C 33.617188 -121.15625 46.222656 -118.003906 46.222656 -121.503906 C 46.222656 -123.257812 43.945312 -123.257812 42.71875 -123.257812 C 37.816406 -123.257812 31.863281 -122.554688 26.613281 -122.554688 C 20.308594 -122.554688 13.480469 -123.257812 7.703125 -123.257812 C 6.828125 -123.257812 4.550781 -123.257812 4.550781 -121.332031 Z M 4.550781 -121.332031 "/></g></g><g style="fill:#ffffff;fill-opacity:1;"><g transform="translate(278.252704, 239.066176)"><path style="stroke:none" d="M 3.5 -121.15625 C 3.5 -119.578125 5.425781 -119.054688 8.054688 -118.527344 C 9.980469 -118.179688 12.082031 -117.828125 14.007812 -116.253906 C 16.457031 -114.328125 18.207031 -111.175781 18.207031 -102.597656 L 18.207031 -19.433594 C 18.207031 -11.207031 17.15625 -7.703125 13.65625 -5.777344 C 10.328125 -3.851562 5.601562 -3.152344 5.601562 -1.050781 C 5.601562 0.699219 7.703125 0.699219 8.578125 0.699219 C 16.457031 0.699219 25.386719 0 35.367188 0 C 46.921875 0 58.125 0.699219 71.609375 0.699219 C 80.1875 0.699219 82.289062 -0.875 85.265625 -3.851562 C 91.917969 -10.15625 95.417969 -17.332031 95.417969 -22.058594 C 95.417969 -23.109375 95.070312 -24.335938 94.019531 -24.335938 C 91.742188 -24.335938 85.789062 -6.304688 45.519531 -6.304688 C 34.664062 -6.304688 32.039062 -8.230469 32.039062 -15.230469 L 32.039062 -54.625 C 32.039062 -56.199219 32.039062 -58.652344 35.015625 -58.652344 L 61.277344 -58.652344 C 75.460938 -58.652344 70.03125 -43.246094 75.285156 -43.246094 C 77.210938 -43.246094 77.210938 -44.996094 77.210938 -45.871094 C 77.210938 -49.898438 76.859375 -54.976562 76.859375 -59.527344 L 77.210938 -76.511719 C 77.210938 -79.660156 75.984375 -80.363281 75.285156 -80.363281 C 71.082031 -80.363281 75.632812 -66.355469 57.777344 -66.355469 L 36.765625 -66.355469 C 32.738281 -66.355469 32.039062 -66.707031 32.039062 -69.855469 L 32.039062 -106.972656 C 32.039062 -115.027344 32.214844 -115.902344 43.417969 -115.902344 L 57.074219 -115.902344 C 66.878906 -115.902344 73.359375 -114.851562 77.035156 -112.226562 C 81.761719 -108.726562 77.910156 -98.570312 82.460938 -98.570312 C 82.988281 -98.570312 85.964844 -98.394531 85.964844 -118.878906 C 85.964844 -122.554688 85.4375 -123.257812 83.863281 -123.257812 C 78.960938 -123.257812 62.855469 -122.554688 59.003906 -122.554688 C 53.574219 -122.554688 39.917969 -123.257812 11.554688 -123.257812 C 5.953125 -123.257812 3.5 -123.082031 3.5 -121.15625 Z M 3.5 -121.15625 "/></g></g><g style="fill:#ffffff;fill-opacity:1;"><g transform="translate(39.099723, 369.058013)"><path style="stroke:none" d="M 5.082031 -121.457031 C 5.082031 -115.320312 21.730469 -125.660156 21.730469 -83.949219 C 21.730469 -61.515625 18.050781 -30.320312 17.703125 -20.15625 C 17 0 5.082031 -7.359375 5.082031 -1.402344 C 5.082031 0 5.785156 0.699219 7.011719 0.699219 C 9.988281 0.699219 13.320312 0 21.730469 0 C 27.691406 0 34.875 0.699219 37.679688 0.699219 C 40.308594 0.699219 41.886719 0.351562 41.886719 -1.226562 C 41.886719 -7.359375 26.113281 -0.175781 26.113281 -21.382812 C 26.113281 -28.21875 28.21875 -80.792969 28.21875 -84.125 C 28.21875 -85.351562 28.566406 -87.28125 29.445312 -87.28125 C 30.847656 -87.28125 31.546875 -85.351562 31.722656 -85 L 68.703125 -7.535156 C 69.226562 -6.308594 70.628906 -2.101562 72.382812 -2.101562 C 73.785156 -2.101562 76.238281 -7.535156 77.816406 -10.867188 L 111.816406 -80.269531 C 114.09375 -84.652344 116.199219 -90.082031 118.652344 -90.082031 C 120.578125 -90.082031 120.578125 -83.597656 120.578125 -82.898438 C 121.105469 -60.289062 122.332031 -20.679688 122.332031 -14.898438 C 122.332031 -2.453125 111.464844 -5.957031 111.464844 -0.875 C 111.464844 0.175781 112.167969 0.699219 113.570312 0.699219 C 117.597656 0.699219 123.382812 0 128.992188 0 C 135.828125 0 141.609375 0.699219 145.464844 0.699219 C 147.746094 0.699219 149.496094 0.527344 149.496094 -1.050781 C 149.496094 -7.359375 136.175781 -0.351562 135.652344 -16.300781 C 134.773438 -44.515625 133.199219 -97.09375 133.199219 -103.753906 C 133.199219 -123.03125 146.515625 -115.671875 146.515625 -121.28125 C 146.515625 -121.980469 145.992188 -123.382812 144.589844 -123.382812 C 142.136719 -123.382812 140.03125 -122.683594 136.527344 -122.683594 C 135.300781 -122.683594 130.042969 -123.382812 128.113281 -123.382812 C 126.1875 -123.382812 125.136719 -120.578125 123.558594 -117.425781 L 81.671875 -33.300781 C 79.917969 -29.792969 77.464844 -24.011719 76.238281 -24.1875 C 75.886719 -24.1875 74.835938 -24.535156 72.382812 -29.792969 L 31.019531 -118.125 C 29.792969 -120.578125 29.792969 -123.382812 26.988281 -123.382812 C 24.1875 -123.382812 20.679688 -122.683594 17.703125 -122.683594 C 14.371094 -122.683594 11.214844 -123.382812 8.0625 -123.382812 C 6.660156 -123.382812 5.082031 -123.207031 5.082031 -121.457031 Z M 5.082031 -121.457031 "/></g></g><g style="fill:#ffffff;fill-opacity:1;"><g transform="translate(187.890061, 369.058013)"><path style="stroke:none" d="M 6.660156 -120.753906 C 6.660156 -114.445312 21.03125 -124.960938 21.03125 -104.453125 L 21.03125 -19.804688 C 21.03125 -1.050781 7.359375 -5.957031 7.359375 -1.402344 C 7.359375 -0.351562 8.238281 0.699219 10.515625 0.699219 C 15.246094 0.699219 21.03125 0 29.445312 0 C 39.433594 0 42.238281 0.699219 48.019531 0.699219 C 52.402344 0.699219 53.277344 0 53.277344 -1.402344 C 53.277344 -7.359375 34.875 1.402344 34.875 -22.960938 L 34.875 -112.339844 C 34.875 -116.898438 38.382812 -117.25 43.816406 -117.25 C 66.773438 -117.25 80.792969 -104.105469 80.792969 -84.824219 C 80.792969 -69.050781 70.277344 -60.464844 52.402344 -60.464844 C 45.917969 -60.464844 42.589844 -61.515625 41.011719 -61.515625 C 39.960938 -61.515625 39.257812 -60.992188 39.257812 -59.9375 C 39.257812 -56.960938 48.722656 -55.90625 51.527344 -55.90625 C 85.703125 -55.90625 93.765625 -79.21875 93.765625 -89.734375 C 93.765625 -114.445312 71.15625 -123.382812 46.621094 -123.382812 C 38.382812 -123.382812 35.578125 -122.683594 26.640625 -122.683594 C 16.472656 -122.683594 10.867188 -123.382812 8.9375 -123.382812 C 7.359375 -123.382812 6.660156 -121.980469 6.660156 -120.753906 Z M 6.660156 -120.753906 "/></g></g><g style="fill:#ffffff;fill-opacity:1;"><g transform="translate(278.320845, 369.058013)"><path style="stroke:none" d="M 6.660156 -120.753906 C 6.660156 -114.445312 21.03125 -124.960938 21.03125 -104.453125 L 21.03125 -19.804688 C 21.03125 -1.050781 7.359375 -5.957031 7.359375 -1.402344 C 7.359375 -0.351562 8.238281 0.699219 10.515625 0.699219 C 15.246094 0.699219 21.03125 0 29.445312 0 C 39.433594 0 42.238281 0.699219 48.019531 0.699219 C 52.402344 0.699219 53.277344 0 53.277344 -1.402344 C 53.277344 -7.359375 34.875 1.402344 34.875 -22.960938 L 34.875 -112.339844 C 34.875 -116.898438 38.382812 -117.25 43.816406 -117.25 C 66.773438 -117.25 80.792969 -104.105469 80.792969 -84.824219 C 80.792969 -69.050781 70.277344 -60.464844 52.402344 -60.464844 C 45.917969 -60.464844 42.589844 -61.515625 41.011719 -61.515625 C 39.960938 -61.515625 39.257812 -60.992188 39.257812 -59.9375 C 39.257812 -56.960938 48.722656 -55.90625 51.527344 -55.90625 C 85.703125 -55.90625 93.765625 -79.21875 93.765625 -89.734375 C 93.765625 -114.445312 71.15625 -123.382812 46.621094 -123.382812 C 38.382812 -123.382812 35.578125 -122.683594 26.640625 -122.683594 C 16.472656 -122.683594 10.867188 -123.382812 8.9375 -123.382812 C 7.359375 -123.382812 6.660156 -121.980469 6.660156 -120.753906 Z M 6.660156 -120.753906 "/></g></g></g></svg>